<svg xmlns="http://www.w3.org/2000/svg" xmlns:xlink="http://www.w3.org/1999/xlink" width="500" zoomAndPan="magnify" viewBox="0 0 375 374.999991" height="500" preserveAspectRatio="xMidYMid meet" version="1.0"><defs><g/><clipPath id="6a92061aa0"><path d="M 54.859375 229.5625 L 320.140625 229.5625 L 320.140625 274.898438 L 54.859375 274.898438 Z M 54.859375 229.5625 " clip-rule="nonzero"/></clipPath><clipPath id="439dd55dab"><path d="M 64.683594 30.90625 L 310.316406 30.90625 L 310.316406 276.539062 L 64.683594 276.539062 Z M 64.683594 30.90625 " clip-rule="nonzero"/></clipPath><clipPath id="8e50cc889b"><path d="M 187.5 30.90625 C 119.671875 30.90625 64.683594 85.890625 64.683594 153.722656 C 64.683594 221.550781 119.671875 276.539062 187.5 276.539062 C 255.328125 276.539062 310.316406 221.550781 310.316406 153.722656 C 310.316406 85.890625 255.328125 30.90625 187.5 30.90625 Z M 187.5 30.90625 " clip-rule="nonzero"/></clipPath><clipPath id="629058dbe3"><path d="M 72.972656 39.191406 L 302.027344 39.191406 L 302.027344 268.25 L 72.972656 268.25 Z M 72.972656 39.191406 " clip-rule="nonzero"/></clipPath><clipPath id="54fddb7703"><path d="M 187.5 39.191406 C 124.246094 39.191406 72.972656 90.46875 72.972656 153.722656 C 72.972656 216.972656 124.246094 268.25 187.5 268.25 C 250.753906 268.25 302.027344 216.972656 302.027344 153.722656 C 302.027344 90.46875 250.753906 39.191406 187.5 39.191406 Z M 187.5 39.191406 " clip-rule="nonzero"/></clipPath><clipPath id="410e9e4a30"><path d="M 81.621094 47.84375 L 293.378906 47.84375 L 293.378906 259.601562 L 81.621094 259.601562 Z M 81.621094 47.84375 " clip-rule="nonzero"/></clipPath><clipPath id="beafaa17e1"><path d="M 187.5 47.84375 C 129.023438 47.84375 81.621094 95.246094 81.621094 153.722656 C 81.621094 212.195312 129.023438 259.601562 187.5 259.601562 C 245.976562 259.601562 293.378906 212.195312 293.378906 153.722656 C 293.378906 95.246094 245.976562 47.84375 187.5 47.84375 Z M 187.5 47.84375 " clip-rule="nonzero"/></clipPath><clipPath id="a8d4283ace"><path d="M 90.109375 56.332031 L 285.109375 56.332031 L 285.109375 251.332031 L 90.109375 251.332031 Z M 90.109375 56.332031 " clip-rule="nonzero"/></clipPath><clipPath id="6b3bdcada9"><path d="M 115 117 L 260 117 L 260 294.785156 L 115 294.785156 Z M 115 117 " clip-rule="nonzero"/></clipPath><clipPath id="f95a3bb378"><path d="M 45.035156 238.570312 L 329.964844 238.570312 L 329.964844 283.90625 L 45.035156 283.90625 Z M 45.035156 238.570312 " clip-rule="nonzero"/></clipPath><clipPath id="0d5531e91d"><path d="M 54.859375 244.121094 L 320.140625 244.121094 L 320.140625 294.898438 L 54.859375 294.898438 Z M 54.859375 244.121094 " clip-rule="nonzero"/></clipPath></defs><g clip-path="url(#6a92061aa0)"><path fill="#000000" d="M 54.859375 229.5625 L 320.148438 229.5625 L 320.148438 274.898438 L 54.859375 274.898438 Z M 54.859375 229.5625 " fill-opacity="1" fill-rule="nonzero"/></g><g clip-path="url(#439dd55dab)"><g clip-path="url(#8e50cc889b)"><path fill="#000000" d="M 64.683594 30.90625 L 310.316406 30.90625 L 310.316406 276.539062 L 64.683594 276.539062 Z M 64.683594 30.90625 " fill-opacity="1" fill-rule="nonzero"/></g></g><g clip-path="url(#629058dbe3)"><g clip-path="url(#54fddb7703)"><path fill="#ffffff" d="M 72.972656 39.191406 L 302.027344 39.191406 L 302.027344 268.25 L 72.972656 268.25 Z M 72.972656 39.191406 " fill-opacity="1" fill-rule="nonzero"/></g></g><g clip-path="url(#410e9e4a30)"><g clip-path="url(#beafaa17e1)"><path fill="#ffde59" d="M 81.621094 47.84375 L 293.378906 47.84375 L 293.378906 259.601562 L 81.621094 259.601562 Z M 81.621094 47.84375 " fill-opacity="1" fill-rule="nonzero"/></g></g><path fill="#ffffff" d="M 187.609375 206.300781 C 173.59375 206.300781 160.417969 200.84375 150.507812 190.933594 C 140.597656 181.023438 135.140625 167.847656 135.140625 153.832031 C 135.140625 139.816406 140.597656 126.640625 150.507812 116.730469 C 160.417969 106.820312 173.59375 101.363281 187.609375 101.363281 C 201.625 101.363281 214.800781 106.820312 224.710938 116.730469 C 234.621094 126.640625 240.078125 139.816406 240.078125 153.832031 C 240.078125 167.847656 234.621094 181.023438 224.710938 190.933594 C 214.800781 200.84375 201.625 206.300781 187.609375 206.300781 Z M 187.609375 101.859375 C 158.953125 101.859375 135.636719 125.175781 135.636719 153.832031 C 135.636719 182.488281 158.953125 205.804688 187.609375 205.804688 C 216.269531 205.804688 239.582031 182.488281 239.582031 153.832031 C 239.582031 125.175781 216.269531 101.859375 187.609375 101.859375 Z M 187.609375 101.859375 " fill-opacity="1" fill-rule="nonzero"/><path fill="#ffffff" d="M 187.609375 197.191406 C 176.027344 197.191406 165.140625 192.679688 156.953125 184.492188 C 148.761719 176.300781 144.253906 165.414062 144.253906 153.832031 C 144.253906 142.25 148.761719 131.363281 156.953125 123.171875 C 165.140625 114.984375 176.027344 110.472656 187.609375 110.472656 C 199.191406 110.472656 210.078125 114.984375 218.269531 123.171875 C 226.457031 131.363281 230.96875 142.25 230.96875 153.832031 C 230.96875 165.414062 226.457031 176.300781 218.269531 184.492188 C 210.078125 192.679688 199.191406 197.191406 187.609375 197.191406 Z M 187.609375 110.882812 C 163.929688 110.882812 144.664062 130.152344 144.664062 153.832031 C 144.664062 177.511719 163.929688 196.78125 187.609375 196.78125 C 211.292969 196.78125 230.558594 177.511719 230.558594 153.832031 C 230.558594 130.152344 211.292969 110.882812 187.609375 110.882812 Z M 187.609375 110.882812 " fill-opacity="1" fill-rule="nonzero"/><path fill="#ffffff" d="M 187.609375 187.449219 C 169.074219 187.449219 153.992188 172.371094 153.992188 153.832031 C 153.992188 135.292969 169.074219 120.214844 187.609375 120.214844 C 206.148438 120.214844 221.230469 135.292969 221.230469 153.832031 C 221.226562 172.371094 206.148438 187.449219 187.609375 187.449219 Z M 187.609375 120.53125 C 169.25 120.53125 154.3125 135.46875 154.3125 153.832031 C 154.3125 172.195312 169.25 187.132812 187.609375 187.132812 C 205.972656 187.132812 220.910156 172.195312 220.910156 153.832031 C 220.910156 135.46875 205.972656 120.53125 187.609375 120.53125 Z M 187.609375 120.53125 " fill-opacity="1" fill-rule="nonzero"/><path fill="#ffffff" d="M 187.609375 234.792969 C 165.984375 234.792969 145.65625 226.371094 130.363281 211.078125 C 115.070312 195.789062 106.648438 175.457031 106.648438 153.832031 C 106.648438 132.207031 115.070312 111.875 130.363281 96.585938 C 145.652344 81.292969 165.984375 72.871094 187.609375 72.871094 C 209.234375 72.871094 229.566406 81.292969 244.859375 96.585938 C 260.148438 111.875 268.570312 132.207031 268.570312 153.832031 C 268.570312 175.457031 260.148438 195.789062 244.859375 211.078125 C 229.566406 226.371094 209.234375 234.792969 187.609375 234.792969 Z M 187.609375 73.640625 C 143.390625 73.640625 107.417969 109.613281 107.417969 153.832031 C 107.417969 198.050781 143.390625 234.023438 187.609375 234.023438 C 231.828125 234.023438 267.804688 198.050781 267.804688 153.832031 C 267.804688 109.613281 231.828125 73.640625 187.609375 73.640625 Z M 187.609375 73.640625 " fill-opacity="1" fill-rule="nonzero"/><path fill="#ffffff" d="M 187.609375 225.808594 C 168.382812 225.808594 150.308594 218.324219 136.714844 204.726562 C 123.117188 191.132812 115.632812 173.058594 115.632812 153.832031 C 115.632812 134.605469 123.117188 116.53125 136.714844 102.933594 C 150.308594 89.339844 168.382812 81.851562 187.609375 81.851562 C 206.835938 81.851562 224.910156 89.339844 238.507812 102.933594 C 252.101562 116.53125 259.589844 134.605469 259.589844 153.832031 C 259.589844 173.058594 252.101562 191.132812 238.507812 204.726562 C 224.910156 218.324219 206.835938 225.808594 187.609375 225.808594 Z M 187.609375 82.535156 C 148.296875 82.535156 116.3125 114.519531 116.3125 153.832031 C 116.3125 193.144531 148.296875 225.128906 187.609375 225.128906 C 226.921875 225.128906 258.90625 193.144531 258.90625 153.832031 C 258.90625 114.519531 226.921875 82.535156 187.609375 82.535156 Z M 187.609375 82.535156 " fill-opacity="1" fill-rule="nonzero"/><path fill="#ffffff" d="M 187.609375 216.324219 C 153.152344 216.324219 125.117188 188.289062 125.117188 153.832031 C 125.117188 119.375 153.152344 91.339844 187.609375 91.339844 C 222.066406 91.339844 250.101562 119.375 250.101562 153.832031 C 250.101562 188.289062 222.066406 216.324219 187.609375 216.324219 Z M 187.609375 91.933594 C 153.480469 91.933594 125.710938 119.699219 125.710938 153.832031 C 125.710938 187.960938 153.480469 215.730469 187.609375 215.730469 C 221.742188 215.730469 249.507812 187.960938 249.507812 153.832031 C 249.507812 119.699219 221.742188 91.933594 187.609375 91.933594 Z M 187.609375 91.933594 " fill-opacity="1" fill-rule="nonzero"/><g clip-path="url(#a8d4283ace)"><path fill="#ffffff" d="M 187.609375 251.332031 C 161.566406 251.332031 137.082031 241.191406 118.667969 222.777344 C 100.25 204.359375 90.109375 179.875 90.109375 153.832031 C 90.109375 127.789062 100.25 103.304688 118.667969 84.886719 C 137.082031 66.472656 161.566406 56.332031 187.609375 56.332031 C 213.652344 56.332031 238.136719 66.472656 256.554688 84.886719 C 274.96875 103.304688 285.109375 127.789062 285.109375 153.832031 C 285.109375 179.875 274.96875 204.359375 256.554688 222.777344 C 238.136719 241.191406 213.652344 251.332031 187.609375 251.332031 Z M 187.609375 57.253906 C 134.359375 57.253906 91.035156 100.578125 91.035156 153.832031 C 91.035156 207.085938 134.359375 250.410156 187.609375 250.410156 C 240.863281 250.410156 284.1875 207.085938 284.1875 153.832031 C 284.1875 100.578125 240.863281 57.253906 187.609375 57.253906 Z M 187.609375 57.253906 " fill-opacity="1" fill-rule="nonzero"/></g><path fill="#ffffff" d="M 187.609375 242.796875 C 138.554688 242.796875 98.644531 202.886719 98.644531 153.832031 C 98.644531 104.773438 138.554688 64.863281 187.609375 64.863281 C 236.667969 64.863281 276.578125 104.773438 276.578125 153.832031 C 276.578125 202.886719 236.667969 242.796875 187.609375 242.796875 Z M 187.609375 65.707031 C 139.019531 65.707031 99.488281 105.242188 99.488281 153.832031 C 99.488281 202.421875 139.019531 241.957031 187.609375 241.957031 C 236.203125 241.957031 275.734375 202.421875 275.734375 153.832031 C 275.734375 105.242188 236.203125 65.707031 187.609375 65.707031 Z M 187.609375 65.707031 " fill-opacity="1" fill-rule="nonzero"/><path fill="#000000" d="M 246.683594 277.972656 C 249.011719 277.972656 250.910156 279.871094 250.910156 282.203125 C 250.910156 284.542969 249.015625 286.433594 246.683594 286.433594 L 229.765625 286.433594 C 226.003906 286.433594 224.128906 281.859375 226.777344 279.210938 C 227.574219 278.414062 228.636719 277.972656 229.765625 277.972656 Z M 246.683594 277.972656 " fill-opacity="1" fill-rule="nonzero"/><path fill="#000000" d="M 187.476562 125.726562 C 189.804688 125.726562 191.703125 127.625 191.703125 129.957031 C 191.703125 132.277344 189.820312 134.171875 187.496094 134.183594 C 187.488281 134.183594 187.484375 134.183594 187.476562 134.183594 C 187.46875 134.183594 187.457031 134.183594 187.449219 134.183594 C 185.132812 134.171875 183.246094 132.277344 183.246094 129.957031 C 183.246094 127.625 185.144531 125.726562 187.476562 125.726562 Z M 187.476562 125.726562 " fill-opacity="1" fill-rule="nonzero"/><path fill="#000000" d="M 145.183594 277.972656 C 148.949219 277.972656 150.820312 282.546875 148.175781 285.191406 C 147.375 285.992188 146.3125 286.433594 145.183594 286.433594 L 128.269531 286.433594 C 124.503906 286.433594 122.632812 281.859375 125.277344 279.210938 C 126.078125 278.414062 127.140625 277.972656 128.269531 277.972656 Z M 145.183594 277.972656 " fill-opacity="1" fill-rule="nonzero"/><path fill="#000000" d="M 146.300781 178.140625 C 147.9375 176.476562 147.914062 173.796875 146.246094 172.160156 C 122.253906 148.589844 122.253906 110.027344 146.246094 86.453125 C 147.914062 84.816406 147.9375 82.140625 146.300781 80.472656 C 144.664062 78.804688 141.984375 78.78125 140.320312 80.417969 C 112.949219 107.308594 112.949219 151.300781 140.320312 178.195312 C 141.988281 179.832031 144.664062 179.808594 146.300781 178.140625 Z M 146.300781 178.140625 " fill-opacity="1" fill-rule="nonzero"/><path fill="#000000" d="M 148.089844 156.105469 C 149.773438 157.734375 152.449219 157.679688 154.070312 156.007812 C 155.695312 154.328125 155.652344 151.652344 153.972656 150.027344 C 142.222656 138.648438 142.265625 119.921875 153.972656 108.585938 C 155.652344 106.960938 155.695312 104.285156 154.070312 102.605469 C 152.445312 100.929688 149.765625 100.886719 148.089844 102.511719 C 132.894531 117.222656 132.953125 141.449219 148.089844 156.105469 Z M 148.089844 156.105469 " fill-opacity="1" fill-rule="nonzero"/><path fill="#000000" d="M 159.242188 141.921875 C 160.960938 143.496094 163.636719 143.386719 165.214844 141.664062 C 166.796875 139.945312 166.679688 137.269531 164.960938 135.6875 C 161.191406 132.230469 161.234375 126.347656 164.960938 122.925781 C 166.679688 121.347656 166.796875 118.671875 165.214844 116.949219 C 163.636719 115.230469 160.960938 115.113281 159.242188 116.695312 C 151.855469 123.476562 151.851562 135.136719 159.242188 141.921875 Z M 159.242188 141.921875 " fill-opacity="1" fill-rule="nonzero"/><path fill="#000000" d="M 228.703125 172.160156 C 227.039062 173.796875 227.011719 176.476562 228.652344 178.140625 C 230.289062 179.808594 232.964844 179.832031 234.632812 178.195312 C 262 151.304688 262.003906 107.3125 234.632812 80.421875 C 232.964844 78.785156 230.289062 78.804688 228.652344 80.472656 C 227.011719 82.140625 227.039062 84.816406 228.703125 86.453125 C 252.695312 110.023438 252.699219 148.585938 228.703125 172.160156 Z M 228.703125 172.160156 " fill-opacity="1" fill-rule="nonzero"/><path fill="#000000" d="M 220.976562 150.027344 C 219.300781 151.652344 219.257812 154.328125 220.882812 156.007812 C 222.507812 157.6875 225.1875 157.726562 226.859375 156.105469 C 242.054688 141.390625 241.996094 117.167969 226.859375 102.511719 C 225.183594 100.886719 222.507812 100.929688 220.882812 102.609375 C 219.257812 104.285156 219.300781 106.964844 220.976562 108.589844 C 232.730469 119.964844 232.683594 138.691406 220.976562 150.027344 Z M 220.976562 150.027344 " fill-opacity="1" fill-rule="nonzero"/><path fill="#000000" d="M 209.734375 141.664062 C 211.304688 143.378906 213.980469 143.507812 215.710938 141.921875 C 223.097656 135.140625 223.097656 123.476562 215.710938 116.695312 C 213.988281 115.117188 211.3125 115.230469 209.734375 116.949219 C 208.15625 118.671875 208.269531 121.347656 209.988281 122.925781 C 213.757812 126.382812 213.71875 132.269531 209.988281 135.6875 C 208.269531 137.269531 208.15625 139.945312 209.734375 141.664062 Z M 209.734375 141.664062 " fill-opacity="1" fill-rule="nonzero"/><g clip-path="url(#6b3bdcada9)"><path fill="#000000" d="M 246.683594 269.515625 L 239.316406 269.515625 C 236.691406 262.25 195.738281 148.847656 193.035156 141.359375 C 197.25 139.292969 200.164062 134.957031 200.164062 129.957031 C 200.164062 122.960938 194.472656 117.269531 187.476562 117.269531 C 180.480469 117.269531 174.789062 122.960938 174.789062 129.957031 C 174.789062 134.957031 177.699219 139.292969 181.917969 141.359375 C 179.449219 148.195312 138.074219 262.761719 135.636719 269.515625 L 128.269531 269.515625 C 121.273438 269.515625 115.582031 275.207031 115.582031 282.203125 C 115.582031 289.199219 121.273438 294.890625 128.269531 294.890625 L 145.183594 294.890625 C 152.179688 294.890625 157.871094 289.199219 157.871094 282.203125 C 157.871094 275.207031 152.179688 269.515625 145.183594 269.515625 L 144.628906 269.515625 L 149.210938 256.828125 L 225.742188 256.828125 L 230.324219 269.515625 L 229.765625 269.515625 C 222.769531 269.515625 217.078125 275.207031 217.078125 282.203125 C 217.078125 289.199219 222.769531 294.890625 229.765625 294.890625 L 246.683594 294.890625 C 253.679688 294.890625 259.371094 289.199219 259.371094 282.203125 C 259.371094 275.207031 253.679688 269.515625 246.683594 269.515625 Z M 145.183594 277.972656 C 147.515625 277.972656 149.414062 279.871094 149.414062 282.203125 C 149.414062 284.535156 147.515625 286.433594 145.183594 286.433594 L 128.269531 286.433594 C 125.9375 286.433594 124.039062 284.535156 124.039062 282.203125 C 124.039062 279.871094 125.9375 277.972656 128.269531 277.972656 Z M 187.476562 125.726562 C 189.808594 125.726562 191.703125 127.625 191.703125 129.957031 C 191.703125 132.289062 189.808594 134.183594 187.476562 134.183594 C 185.144531 134.183594 183.246094 132.289062 183.246094 129.957031 C 183.246094 127.625 185.144531 125.726562 187.476562 125.726562 Z M 187.476562 150.867188 L 194.855469 171.304688 L 173.117188 190.628906 Z M 152.265625 248.371094 L 164.957031 213.222656 L 215.269531 248.371094 Z M 168.921875 205.675781 L 197.949219 179.871094 L 220.207031 241.5 Z M 246.683594 286.433594 L 229.765625 286.433594 C 227.433594 286.433594 225.535156 284.535156 225.535156 282.203125 C 225.535156 279.871094 227.433594 277.972656 229.765625 277.972656 L 246.683594 277.972656 C 249.015625 277.972656 250.910156 279.871094 250.910156 282.203125 C 250.910156 284.535156 249.015625 286.433594 246.683594 286.433594 Z M 246.683594 286.433594 " fill-opacity="1" fill-rule="nonzero"/></g><g clip-path="url(#f95a3bb378)"><path fill="#ffffff" d="M 45.035156 238.570312 L 329.980469 238.570312 L 329.980469 283.90625 L 45.035156 283.90625 Z M 45.035156 238.570312 " fill-opacity="1" fill-rule="nonzero"/></g><g clip-path="url(#0d5531e91d)"><path fill="#000000" d="M 54.859375 244.121094 L 320.046875 244.121094 L 320.046875 294.898438 L 54.859375 294.898438 Z M 54.859375 244.121094 " fill-opacity="1" fill-rule="nonzero"/></g><g fill="#ffffff" fill-opacity="1"><g transform="translate(80.316179, 283.645276)"><g><path d="M 3.140625 0 L 3.140625 -29.734375 L 10.15625 -29.734375 L 20.140625 -15.59375 L 30.15625 -29.734375 L 37.125 -29.734375 L 37.125 0 L 28.640625 0 L 28.640625 -15.046875 L 22.9375 -7.046875 L 17.375 -7.046875 L 11.640625 -15.078125 L 11.640625 0 Z M 3.140625 0 "/></g></g></g><g fill="#ffffff" fill-opacity="1"><g transform="translate(124.832682, 283.645276)"><g><path d="M 3.140625 0 L 3.140625 -29.734375 L 23.53125 -29.734375 L 23.53125 -22.8125 L 11.640625 -22.8125 L 11.640625 -18.484375 L 22.390625 -18.484375 L 22.390625 -11.59375 L 11.640625 -11.59375 L 11.640625 -7.015625 L 24 -7.015625 L 24 0 Z M 3.140625 0 "/></g></g></g><g fill="#ffffff" fill-opacity="1"><g transform="translate(154.992358, 283.645276)"><g><path d="M 13.8125 0.640625 C 9.957031 0.640625 6.9375 -0.269531 4.75 -2.09375 C 2.570312 -3.925781 1.484375 -6.441406 1.484375 -9.640625 L 9.765625 -9.640625 C 9.765625 -8.503906 10.113281 -7.617188 10.8125 -6.984375 C 11.507812 -6.347656 12.46875 -6.03125 13.6875 -6.03125 C 14.726562 -6.03125 15.546875 -6.234375 16.140625 -6.640625 C 16.734375 -7.054688 17.03125 -7.632812 17.03125 -8.375 C 17.03125 -10.007812 15.25 -11.179688 11.6875 -11.890625 C 5.03125 -13.171875 1.703125 -16.300781 1.703125 -21.28125 C 1.703125 -24.082031 2.710938 -26.296875 4.734375 -27.921875 C 6.765625 -29.554688 9.535156 -30.375 13.046875 -30.375 C 15.484375 -30.375 17.597656 -29.960938 19.390625 -29.140625 C 21.191406 -28.316406 22.578125 -27.144531 23.546875 -25.625 C 24.523438 -24.113281 25.015625 -22.34375 25.015625 -20.3125 L 16.953125 -20.3125 C 16.953125 -21.4375 16.625 -22.296875 15.96875 -22.890625 C 15.320312 -23.492188 14.40625 -23.796875 13.21875 -23.796875 C 12.21875 -23.796875 11.421875 -23.585938 10.828125 -23.171875 C 10.234375 -22.765625 9.9375 -22.191406 9.9375 -21.453125 C 9.9375 -20.691406 10.332031 -20.054688 11.125 -19.546875 C 11.925781 -19.035156 13.273438 -18.566406 15.171875 -18.140625 C 18.796875 -17.347656 21.4375 -16.191406 23.09375 -14.671875 C 24.75 -13.160156 25.578125 -11.171875 25.578125 -8.703125 C 25.578125 -5.785156 24.539062 -3.5 22.46875 -1.84375 C 20.40625 -0.1875 17.519531 0.640625 13.8125 0.640625 Z M 13.8125 0.640625 "/></g></g></g><g fill="#ffffff" fill-opacity="1"><g transform="translate(186.383826, 283.645276)"><g><path d="M 20.90625 0 L 20.90625 -11.171875 L 11.71875 -11.171875 L 11.71875 0 L 3.140625 0 L 3.140625 -29.734375 L 11.71875 -29.734375 L 11.71875 -19.078125 L 20.90625 -19.078125 L 20.90625 -29.734375 L 29.484375 -29.734375 L 29.484375 0 Z M 20.90625 0 "/></g></g></g><g fill="#ffffff" fill-opacity="1"><g transform="translate(223.254678, 283.645276)"><g><path d="M 17.03125 0.640625 C 13.945312 0.640625 11.234375 -0.0078125 8.890625 -1.3125 C 6.554688 -2.613281 4.726562 -4.429688 3.40625 -6.765625 C 2.09375 -9.109375 1.4375 -11.8125 1.4375 -14.875 C 1.4375 -17.925781 2.085938 -20.617188 3.390625 -22.953125 C 4.703125 -25.296875 6.523438 -27.117188 8.859375 -28.421875 C 11.191406 -29.722656 13.890625 -30.375 16.953125 -30.375 C 19.609375 -30.375 22.015625 -29.863281 24.171875 -28.84375 C 26.328125 -27.820312 28.132812 -26.390625 29.59375 -24.546875 C 31.050781 -22.710938 32.035156 -20.535156 32.546875 -18.015625 L 23.875 -18.015625 C 23.425781 -19.347656 22.601562 -20.414062 21.40625 -21.21875 C 20.21875 -22.03125 18.847656 -22.4375 17.296875 -22.4375 C 15.898438 -22.4375 14.664062 -22.113281 13.59375 -21.46875 C 12.519531 -20.832031 11.675781 -19.945312 11.0625 -18.8125 C 10.457031 -17.6875 10.15625 -16.375 10.15625 -14.875 C 10.15625 -13.394531 10.453125 -12.082031 11.046875 -10.9375 C 11.640625 -9.789062 12.46875 -8.898438 13.53125 -8.265625 C 14.59375 -7.628906 15.816406 -7.3125 17.203125 -7.3125 C 18.816406 -7.3125 20.21875 -7.726562 21.40625 -8.5625 C 22.601562 -9.394531 23.46875 -10.503906 24 -11.890625 L 32.71875 -11.890625 C 32.289062 -9.367188 31.351562 -7.164062 29.90625 -5.28125 C 28.46875 -3.40625 26.648438 -1.945312 24.453125 -0.90625 C 22.253906 0.125 19.78125 0.640625 17.03125 0.640625 Z M 17.03125 0.640625 "/></g></g></g><g fill="#ffffff" fill-opacity="1"><g transform="translate(261.569714, 283.645276)"><g><path d="M 3.140625 0 L 3.140625 -29.734375 L 10.15625 -29.734375 L 21.453125 -14.65625 L 21.453125 -29.734375 L 29.90625 -29.734375 L 29.90625 0 L 22.9375 0 L 11.640625 -15.171875 L 11.640625 0 Z M 3.140625 0 "/></g></g></g><g fill="#000000" fill-opacity="1"><g transform="translate(99.011354, 333.191104)"><g><path d="M 36.8125 -27.171875 L 36.8125 -7.390625 L 33.59375 -7.390625 L 33.59375 -9.96875 L 22.03125 -9.96875 L 22.03125 4.015625 L 18.8125 4.015625 L 18.8125 -9.96875 L 7.71875 -9.96875 L 7.71875 -7.078125 L 4.5 -7.078125 L 4.5 -27.171875 L 18.8125 -27.171875 L 18.8125 -33.4375 L 22.03125 -33.4375 L 22.03125 -27.171875 Z M 7.71875 -13.015625 L 18.8125 -13.015625 L 18.8125 -24.109375 L 7.71875 -24.109375 Z M 22.03125 -24.109375 L 22.03125 -13.015625 L 33.59375 -13.015625 L 33.59375 -24.109375 Z M 22.03125 -24.109375 "/></g></g></g><g fill="#000000" fill-opacity="1"><g transform="translate(144.281797, 333.191104)"><g><path d="M 37.453125 -32 L 37.453125 3.703125 L 34.25 3.703125 L 34.25 1.453125 L 6.90625 1.453125 L 6.90625 3.703125 L 3.703125 3.703125 L 3.703125 -32 Z M 6.90625 -1.609375 L 34.25 -1.609375 L 34.25 -28.9375 L 6.90625 -28.9375 Z M 9.15625 -25.5625 L 32 -25.5625 L 32 -22.671875 L 22.1875 -22.671875 L 22.1875 -17.53125 L 31.03125 -17.53125 L 31.03125 -14.625 L 22.1875 -14.625 L 22.1875 -7.71875 L 32.46875 -7.71875 L 32.46875 -4.828125 L 8.6875 -4.828125 L 8.6875 -7.71875 L 19.125 -7.71875 L 19.125 -14.625 L 10.296875 -14.625 L 10.296875 -17.53125 L 19.125 -17.53125 L 19.125 -22.671875 L 9.15625 -22.671875 Z M 27.484375 -13.671875 C 28.671875 -12.484375 29.691406 -11.195312 30.546875 -9.8125 L 27.8125 -8.515625 C 27.0625 -9.910156 26.148438 -11.253906 25.078125 -12.546875 Z M 27.484375 -13.671875 "/></g></g></g><g fill="#000000" fill-opacity="1"><g transform="translate(189.55224, 333.191104)"><g><path d="M 2.734375 -28.453125 L 8.84375 -28.453125 C 8.414062 -29.847656 7.878906 -31.132812 7.234375 -32.3125 L 10.609375 -33.4375 C 11.359375 -31.832031 11.945312 -30.171875 12.375 -28.453125 L 18.484375 -28.453125 L 18.484375 -25.40625 C 16.660156 -21.863281 14.835938 -18.859375 13.015625 -16.390625 C 15.804688 -14.359375 18.113281 -12.378906 19.9375 -10.453125 L 17.84375 -7.390625 C 16.238281 -9.535156 14.523438 -11.410156 12.703125 -13.015625 L 12.703125 3.703125 L 9.484375 3.703125 L 9.484375 -12.21875 C 7.660156 -10.175781 5.835938 -8.675781 4.015625 -7.71875 L 2.09375 -10.609375 C 7.125 -13.710938 11.300781 -18.644531 14.625 -25.40625 L 2.734375 -25.40625 Z M 19.453125 -21.546875 L 27.015625 -21.546875 L 27.015625 -33.28125 L 30.21875 -33.28125 L 30.21875 -21.546875 L 37.9375 -21.546875 L 37.9375 -18.484375 L 30.21875 -18.484375 L 30.21875 -0.96875 L 39.390625 -0.96875 L 39.390625 2.09375 L 17.53125 2.09375 L 17.53125 -0.96875 L 27.015625 -0.96875 L 27.015625 -18.484375 L 19.453125 -18.484375 Z M 19.453125 -21.546875 "/></g></g></g><g fill="#000000" fill-opacity="1"><g transform="translate(234.822687, 333.191104)"><g><path d="M 36.96875 -32 L 36.96875 -28.9375 L 7.390625 -28.9375 L 7.390625 -0.796875 L 38.265625 -0.796875 L 38.265625 2.25 L 4.1875 2.25 L 4.1875 -32 Z M 29.09375 -26.6875 L 32.15625 -25.078125 C 30.113281 -21.753906 27.804688 -18.484375 25.234375 -15.265625 C 28.128906 -12.378906 30.863281 -9.378906 33.4375 -6.265625 L 30.875 -3.703125 C 28.40625 -6.804688 25.773438 -9.804688 22.984375 -12.703125 C 20.847656 -10.023438 17.257812 -6.804688 12.21875 -3.046875 L 10.296875 -5.953125 C 13.503906 -8.085938 16.929688 -11.140625 20.578125 -15.109375 C 17.472656 -18.222656 14.148438 -21.222656 10.609375 -24.109375 L 13.1875 -26.046875 C 16.613281 -23.253906 19.773438 -20.46875 22.671875 -17.6875 C 25.023438 -20.46875 27.164062 -23.46875 29.09375 -26.6875 Z M 29.09375 -26.6875 "/></g></g></g></svg>