<?xml version="1.0" standalone="no"?>
<!DOCTYPE svg PUBLIC "-//W3C//DTD SVG 20010904//EN"
 "http://www.w3.org/TR/2001/REC-SVG-20010904/DTD/svg10.dtd">
<svg version="1.0" xmlns="http://www.w3.org/2000/svg"
 width="2224.000000pt" height="2224.000000pt" viewBox="0 0 2224.000000 2224.000000"
 preserveAspectRatio="xMidYMid meet">
<metadata>
Created by potrace 1.11, written by Peter Selinger 2001-2013
</metadata>
<g transform="translate(0.000000,2224.000000) scale(0.100000,-0.100000)"
fill="#000000" stroke="none">
<path d="M0 16991 l0 -5250 88 -26 c274 -82 805 -265 1132 -390 1107 -424
2320 -1031 3410 -1709 1100 -683 2038 -1404 3052 -2345 72 -67 78 -70 83 -49
3 13 39 211 79 442 41 230 78 422 83 426 4 4 1286 826 2848 1827 1562 1000
2851 1827 2865 1836 l26 17 178 -1008 c99 -554 182 -1010 185 -1014 3 -3 103
57 221 134 846 553 1476 930 2165 1295 1768 938 3720 1713 5570 2213 105 28
205 56 223 61 l32 11 0 4389 0 4389 -11120 0 -11120 0 0 -5249z m11180 3944
c15 -8 37 -29 48 -47 11 -18 422 -771 912 -1673 544 -1000 894 -1654 897
-1675 6 -46 -23 -98 -68 -122 -30 -16 -62 -18 -331 -18 l-298 0 0 -760 0 -760
298 0 297 0 73 -412 c49 -273 70 -414 62 -416 -34 -12 -286 -172 -2249 -1431
-1185 -759 -2156 -1379 -2158 -1377 -2 2 142 821 319 1820 l323 1816 298 0
297 0 0 760 0 760 -298 0 c-269 0 -301 2 -331 18 -45 24 -74 76 -68 122 3 21
354 676 901 1683 493 907 904 1660 913 1673 33 51 106 68 163 39z m5470 -1814
c0 -13 8 -21 23 -23 19 -3 22 -9 22 -48 0 -39 -3 -45 -22 -48 -15 -2 -23 -10
-23 -23 0 -19 -13 -19 -560 -19 -553 0 -560 0 -560 20 0 15 -7 20 -25 20 -23
0 -25 3 -25 50 0 47 2 50 25 50 18 0 25 5 25 20 0 20 7 20 560 20 547 0 560 0
560 -19z m400 -236 c0 -20 5 -25 25 -25 23 0 25 -4 25 -45 0 -41 -2 -45 -25
-45 -20 0 -25 -5 -25 -25 l0 -25 -367 2 -368 3 -3 23 c-2 14 -10 22 -23 22
-16 0 -19 7 -19 45 0 38 3 45 20 45 15 0 20 7 20 25 l0 25 370 0 370 0 0 -25z
m-11750 -895 c0 -15 7 -20 25 -20 23 0 25 -4 25 -44 0 -39 -3 -45 -22 -48 -15
-2 -24 -11 -26 -25 l-3 -23 -370 0 -369 0 0 25 c0 18 -5 25 -20 25 -17 0 -20
7 -20 45 0 38 3 45 20 45 13 0 20 7 20 20 0 20 7 20 370 20 363 0 370 0 370
-20z m440 1 c0 -13 8 -21 23 -23 18 -2 23 -10 25 -45 3 -37 0 -42 -20 -45 -15
-2 -24 -11 -26 -25 -3 -23 -6 -23 -143 -23 l-139 0 0 25 c0 18 -5 25 -20 25
-17 0 -20 7 -20 45 0 38 3 45 20 45 13 0 20 7 20 20 0 19 7 20 140 20 132 0
140 -1 140 -19z m-118 -243 c2 -15 11 -24 26 -26 19 -3 22 -9 22 -48 0 -40 -2
-44 -25 -44 -20 0 -25 -5 -25 -25 l0 -25 -275 0 -275 0 0 25 c0 20 -5 25 -25
25 -23 0 -25 4 -25 45 0 41 2 45 25 45 20 0 25 5 25 25 l0 25 274 0 275 0 3
-22z m11858 -2898 c0 -15 7 -20 25 -20 23 0 25 -4 25 -45 0 -41 -2 -45 -25
-45 -20 0 -25 -5 -25 -25 l0 -25 -239 0 -240 0 -3 23 c-2 14 -11 23 -25 25
-20 3 -23 9 -23 48 0 40 2 44 25 44 18 0 25 5 25 20 0 19 7 20 240 20 233 0
240 -1 240 -20z m1300 0 c0 -15 7 -20 25 -20 23 0 25 -4 25 -45 0 -41 -2 -45
-25 -45 -20 0 -25 -5 -25 -25 l0 -25 -535 0 -535 0 0 25 c0 20 -5 25 -26 25
-23 0 -25 3 -22 43 2 35 7 43 26 45 14 2 22 10 22 23 0 19 13 19 535 19 528 0
535 0 535 -20z m-5406 -1439 c131 -738 237 -1344 235 -1346 -18 -17 -5612
-3595 -5615 -3592 -4 4 582 3330 601 3415 4 16 13 22 31 22 13 0 39 6 57 14
18 7 1022 649 2232 1425 1210 776 2205 1409 2210 1407 6 -1 117 -607 249
-1345z m5836 1200 c0 -13 8 -21 23 -23 18 -2 23 -10 25 -45 3 -40 1 -43 -22
-43 -21 0 -26 -5 -26 -25 l0 -25 -1235 0 -1235 0 0 25 c0 18 -5 25 -20 25 -17
0 -20 7 -20 45 0 38 3 45 20 45 13 0 20 7 20 20 0 20 7 20 1235 20 1214 0
1235 0 1235 -19z m-810 -256 c0 -20 5 -25 25 -25 23 0 25 -4 25 -44 0 -39 -3
-45 -22 -48 -15 -2 -24 -11 -26 -25 l-3 -23 -630 0 -629 0 0 25 c0 18 -5 25
-20 25 -17 0 -20 7 -20 45 0 38 3 45 20 45 13 0 20 7 20 18 0 10 3 22 7 25 3
4 287 7 630 7 l623 0 0 -25z m-13030 -1114 c0 -13 8 -21 23 -23 19 -3 22 -9
22 -48 0 -39 -3 -45 -22 -48 -15 -2 -23 -10 -23 -23 0 -19 -24 -19 -1460 -19
-1436 0 -1460 0 -1460 19 0 13 -8 21 -22 23 -20 3 -23 9 -23 48 0 39 3 45 23
48 14 2 22 10 22 23 0 19 24 19 1460 19 1436 0 1460 0 1460 -19z m-920 -251
c0 -13 7 -20 20 -20 17 0 20 -7 20 -50 0 -43 -3 -50 -20 -50 -13 0 -20 -7 -20
-20 0 -20 -7 -20 -870 -20 -863 0 -870 0 -870 20 0 15 -7 20 -25 20 -23 0 -25
3 -25 50 0 47 2 50 25 50 18 0 25 5 25 20 0 20 7 20 870 20 863 0 870 0 870
-20z m708 -247 c2 -15 10 -23 23 -23 16 0 19 -7 19 -45 0 -38 -3 -45 -19 -45
-13 0 -21 -8 -23 -22 l-3 -23 -567 -3 -568 -2 0 25 c0 20 -5 25 -25 25 -23 0
-25 4 -25 45 0 41 2 45 25 45 20 0 25 5 25 25 l0 25 568 -2 567 -3 3 -22z"/>
<path d="M10335 19112 c-429 -789 -781 -1439 -783 -1444 -2 -4 704 -8 1568 -8
864 0 1570 4 1568 8 -11 28 -1553 2859 -1562 2869 -8 8 -213 -360 -791 -1425z"/>
<path d="M10120 16640 l0 -760 445 0 445 0 0 760 0 760 -445 0 -445 0 0 -760z"/>
<path d="M11230 16640 l0 -760 445 0 445 0 0 760 0 760 -445 0 -445 0 0 -760z"/>
<path d="M22010 13274 c-1740 -484 -3286 -1076 -4895 -1875 -859 -426 -1481
-777 -2320 -1309 -287 -182 -1993 -1292 -2295 -1493 -771 -514 -1269 -889
-1810 -1361 -219 -191 -684 -652 -985 -976 -110 -118 -246 -264 -304 -325 -94
-99 -177 -200 -202 -247 -7 -13 8 -37 69 -110 198 -236 572 -716 751 -963 l63
-87 366 372 c381 387 817 804 1202 1146 2841 2528 6254 4429 9831 5477 195 57
445 128 557 157 l202 53 0 799 c0 754 -1 798 -17 797 -10 -1 -106 -26 -213
-55z"/>
<path d="M0 10997 l0 -614 178 -73 c283 -116 827 -359 1150 -513 1187 -567
2253 -1193 3232 -1896 2534 -1819 4341 -3864 5550 -6280 216 -432 482 -1049
650 -1503 l43 -118 803 0 804 0 -26 73 c-98 274 -298 749 -451 1072 -1300
2734 -3022 4985 -5218 6821 -1670 1396 -3806 2623 -5855 3364 -226 81 -772
263 -827 275 l-33 7 0 -615z"/>
<path d="M21995 11545 c-4288 -1167 -8326 -3538 -11461 -6729 -203 -207 -370
-380 -372 -385 -2 -5 48 -83 111 -173 216 -309 559 -836 697 -1069 l33 -57
371 372 c375 376 600 588 956 900 2378 2088 5738 4100 8945 5356 268 105 813
307 908 336 l57 18 0 748 c0 411 -3 747 -7 747 -5 -1 -111 -30 -238 -64z"/>
<path d="M0 9420 c0 -578 3 -830 11 -830 18 0 428 -155 672 -254 863 -350
1673 -769 2392 -1236 1298 -843 2579 -1982 3616 -3215 876 -1041 1616 -2171
2213 -3380 89 -181 180 -369 202 -417 l39 -88 763 0 c419 0 762 3 762 7 0 24
-203 537 -318 803 -1041 2409 -2650 4462 -4922 6281 -1447 1158 -2929 2056
-4705 2852 -242 108 -709 307 -721 307 -2 0 -4 -373 -4 -830z"/>
<path d="M22205 9978 c-137 -47 -676 -248 -879 -328 -3791 -1482 -7735 -3999
-10053 -6417 l-203 -213 38 -62 c152 -248 438 -771 649 -1185 l160 -313 120
143 c469 556 1122 1219 1758 1788 1755 1568 3800 3013 6000 4239 701 391 1673
885 2368 1203 l77 36 0 560 c0 309 -1 561 -2 560 -2 0 -16 -5 -33 -11z"/>
<path d="M21995 8623 c-318 -148 -1244 -612 -1565 -784 -1401 -749 -2706
-1559 -3955 -2457 -1422 -1022 -2787 -2181 -3689 -3132 -388 -409 -806 -883
-806 -915 0 -8 20 -55 44 -103 124 -247 288 -631 436 -1022 l78 -205 82 -3
c79 -3 82 -2 103 25 12 15 91 111 176 213 720 861 1700 1831 2683 2653 1751
1465 3885 2764 6348 3868 l305 136 3 917 c1 504 -1 916 -5 916 -5 0 -111 -48
-238 -107z"/>
<path d="M2 7544 l3 -925 175 -83 c1545 -729 2934 -1630 4165 -2701 560 -487
1184 -1114 1661 -1670 527 -615 1019 -1292 1434 -1977 l113 -188 729 0 c400 0
728 2 728 4 0 13 -215 458 -312 646 -819 1589 -1822 2964 -3078 4220 -579 580
-1129 1057 -1780 1546 -1017 764 -2007 1323 -3205 1809 -207 84 -296 119 -558
216 l-77 29 2 -926z"/>
<path d="M21955 6640 c-2443 -1098 -4533 -2371 -6265 -3814 -848 -707 -1706
-1534 -2391 -2306 -129 -145 -376 -435 -428 -502 -13 -17 45 -18 1182 -18
l1195 0 83 98 c829 972 2062 2041 3419 2962 975 661 2124 1315 3235 1839 132
62 243 117 248 120 4 4 6 399 5 877 l-3 870 -280 -126z"/>
<path d="M0 5710 l0 -779 132 -72 c713 -388 1467 -894 2113 -1418 1142 -926
2177 -2067 3000 -3309 l88 -132 1040 0 1039 0 -28 48 c-226 387 -641 996 -972
1427 -606 787 -1369 1593 -2147 2270 -1220 1062 -2614 1965 -4137 2684 l-128
60 0 -779z"/>
<path d="M21860 4706 c-2055 -1000 -3783 -2145 -5275 -3495 -316 -286 -932
-916 -1133 -1159 l-44 -52 1384 0 1383 0 165 172 c209 217 673 661 895 855
801 700 1716 1305 2758 1824 l247 124 0 952 c0 756 -3 953 -12 952 -7 0 -173
-78 -368 -173z"/>
<path d="M0 3823 l1 -968 142 -90 c610 -388 1370 -978 1942 -1509 357 -331
817 -800 1100 -1119 l120 -136 943 0 943 -1 -107 158 c-553 808 -1078 1449
-1734 2116 -883 897 -1859 1657 -2945 2293 -119 70 -395 223 -401 223 -2 0 -4
-435 -4 -967z"/>
<path d="M22015 2728 c-1024 -514 -1907 -1100 -2695 -1787 -193 -168 -646
-598 -840 -797 l-135 -139 1944 -3 c1069 -1 1946 -1 1948 1 2 2 2 641 1 1420
l-3 1416 -220 -111z"/>
<path d="M0 1355 l0 -1355 1571 0 c1495 0 1571 1 1558 18 -84 107 -516 560
-784 822 -502 490 -905 839 -1435 1241 -270 205 -782 561 -890 619 l-20 11 0
-1356z"/>
</g>
</svg>
